<?xml version="1.0" encoding="utf-8"?>
<!-- Generator: Adobe Illustrator 16.0.0, SVG Export Plug-In . SVG Version: 6.00 Build 0)  -->
<!DOCTYPE svg PUBLIC "-//W3C//DTD SVG 1.1//EN" "http://www.w3.org/Graphics/SVG/1.1/DTD/svg11.dtd">
<svg version="1.1" xmlns="http://www.w3.org/2000/svg" xmlns:xlink="http://www.w3.org/1999/xlink" x="0px" y="0px" width="192px"
	 height="192px" viewBox="0 0 192 192" enable-background="new 0 0 192 192" xml:space="preserve">
<g id="Background">
	<path fill="#FFFFFF" d="M192,160c0,17.6-14.4,32-32,32H32c-17.6,0-32-14.4-32-32V32C0,14.4,14.4,0,32,0h128c17.6,0,32,14.4,32,32
		V160z"/>
</g>
<g id="Foreground_1_">
	<g>
		<g>
			<g>
				<linearGradient id="SVGID_1_" gradientUnits="userSpaceOnUse" x1="95.9995" y1="16.001" x2="95.9995" y2="176.0005">
					<stop  offset="0" style="stop-color:#00D5FF"/>
					<stop  offset="1" style="stop-color:#0055FF"/>
				</linearGradient>
				<path fill="url(#SVGID_1_)" d="M160.221,25.815c0.809-1.112,0.377-2.815-0.957-3.786l-0.05-0.035
					c0.127-0.107,0.242-0.23,0.343-0.369c0.813-1.116,0.383-2.813-0.957-3.785c-1.341-0.975-3.086-0.857-3.896,0.26
					c-0.101,0.139-0.183,0.285-0.245,0.439l-0.05-0.035c-1.335-0.971-3.089-0.854-3.896,0.26c-0.244,0.336-0.363,0.729-0.391,1.139
					c3.169,2.043,6.214,4.263,9.123,6.641C159.631,26.391,159.973,26.156,160.221,25.815z"/>
				<linearGradient id="SVGID_2_" gradientUnits="userSpaceOnUse" x1="95.9995" y1="16.001" x2="95.9995" y2="176.0005">
					<stop  offset="0" style="stop-color:#00D5FF"/>
					<stop  offset="1" style="stop-color:#0055FF"/>
				</linearGradient>
				<path fill="url(#SVGID_2_)" d="M160.221,25.815c0.809-1.112,0.377-2.815-0.957-3.786l-0.05-0.035
					c0.127-0.107,0.242-0.23,0.343-0.369c0.813-1.116,0.383-2.813-0.957-3.785c-1.341-0.975-3.086-0.857-3.896,0.26
					c-0.101,0.139-0.183,0.285-0.245,0.439l-0.05-0.035c-1.335-0.971-3.089-0.854-3.896,0.26c-0.244,0.336-0.363,0.729-0.391,1.139
					c3.169,2.043,6.214,4.263,9.123,6.641C159.631,26.391,159.973,26.156,160.221,25.815z"/>
			</g>
			<g>
				<linearGradient id="SVGID_3_" gradientUnits="userSpaceOnUse" x1="95.9995" y1="16.001" x2="95.9995" y2="176.0005">
					<stop  offset="0" style="stop-color:#00D5FF"/>
					<stop  offset="1" style="stop-color:#0055FF"/>
				</linearGradient>
				<path fill="url(#SVGID_3_)" d="M31.78,25.815c0.247,0.341,0.589,0.574,0.974,0.728c2.91-2.379,5.955-4.6,9.125-6.643
					c-0.027-0.408-0.145-0.801-0.39-1.139c-0.808-1.111-2.562-1.229-3.897-0.26l-0.049,0.036c-0.063-0.154-0.144-0.302-0.245-0.44
					c-0.812-1.115-2.557-1.231-3.896-0.259c-1.341,0.974-1.77,2.669-0.957,3.785c0.101,0.14,0.216,0.262,0.342,0.369l-0.049,0.034
					C31.403,23,30.972,24.703,31.78,25.815z"/>
				<linearGradient id="SVGID_4_" gradientUnits="userSpaceOnUse" x1="95.9995" y1="16.001" x2="95.9995" y2="176.0005">
					<stop  offset="0" style="stop-color:#00D5FF"/>
					<stop  offset="1" style="stop-color:#0055FF"/>
				</linearGradient>
				<path fill="url(#SVGID_4_)" d="M31.78,25.815c0.247,0.341,0.589,0.574,0.974,0.728c2.91-2.379,5.955-4.6,9.125-6.643
					c-0.027-0.408-0.145-0.801-0.39-1.139c-0.808-1.111-2.562-1.229-3.897-0.26l-0.049,0.036c-0.063-0.154-0.144-0.302-0.245-0.44
					c-0.812-1.115-2.557-1.231-3.896-0.259c-1.341,0.974-1.77,2.669-0.957,3.785c0.101,0.14,0.216,0.262,0.342,0.369l-0.049,0.034
					C31.403,23,30.972,24.703,31.78,25.815z"/>
			</g>
			<g>
				<linearGradient id="SVGID_5_" gradientUnits="userSpaceOnUse" x1="95.9995" y1="16.001" x2="95.9995" y2="176.0005">
					<stop  offset="0" style="stop-color:#00D5FF"/>
					<stop  offset="1" style="stop-color:#0055FF"/>
				</linearGradient>
				<path fill="url(#SVGID_5_)" d="M80.778,27.502c-5.854-8.018-19.333-19.53-42.38-2.785C15.327,41.479,22.15,57.874,27.969,65.911
					C38.956,46.365,58.108,32.005,80.778,27.502z"/>
				<linearGradient id="SVGID_6_" gradientUnits="userSpaceOnUse" x1="95.9995" y1="16.001" x2="95.9995" y2="176.0005">
					<stop  offset="0" style="stop-color:#00D5FF"/>
					<stop  offset="1" style="stop-color:#0055FF"/>
				</linearGradient>
				<path fill="url(#SVGID_6_)" d="M80.778,27.502c-5.854-8.018-19.333-19.53-42.38-2.785C15.327,41.479,22.15,57.874,27.969,65.911
					C38.956,46.365,58.108,32.005,80.778,27.502z"/>
			</g>
			<g>
				<linearGradient id="SVGID_7_" gradientUnits="userSpaceOnUse" x1="95.9995" y1="16.001" x2="95.9995" y2="176.0005">
					<stop  offset="0" style="stop-color:#00D5FF"/>
					<stop  offset="1" style="stop-color:#0055FF"/>
				</linearGradient>
				<path fill="url(#SVGID_7_)" d="M164.03,65.91c5.818-8.037,12.643-24.432-10.429-41.195
					c-23.046-16.744-36.525-5.229-42.381,2.787C133.891,32.005,153.043,46.365,164.03,65.91z"/>
				<linearGradient id="SVGID_8_" gradientUnits="userSpaceOnUse" x1="95.9995" y1="16.001" x2="95.9995" y2="176.0005">
					<stop  offset="0" style="stop-color:#00D5FF"/>
					<stop  offset="1" style="stop-color:#0055FF"/>
				</linearGradient>
				<path fill="url(#SVGID_8_)" d="M164.03,65.91c5.818-8.037,12.643-24.432-10.429-41.195
					c-23.046-16.744-36.525-5.229-42.381,2.787C133.891,32.005,153.043,46.365,164.03,65.91z"/>
			</g>
			<g>
				<linearGradient id="SVGID_9_" gradientUnits="userSpaceOnUse" x1="95.9995" y1="16.001" x2="95.9995" y2="176.0005">
					<stop  offset="0" style="stop-color:#00D5FF"/>
					<stop  offset="1" style="stop-color:#0055FF"/>
				</linearGradient>
				<path fill="url(#SVGID_9_)" d="M98,32.051v-4.398c2.329-0.825,4-3.04,4-5.651c0-3.313-2.688-6-6-6c-3.313,0-6,2.687-6,6
					c0,2.611,1.671,4.826,4,5.651v4.398C55.163,33.114,24,64.906,24,104c0,39.764,32.235,72,72,72c39.764,0,72-32.236,72-72
					C168,64.906,136.836,33.113,98,32.051z M96,168c-35.346,0-64-28.654-64-64s28.653-64,64-64c35.348,0,64,28.654,64,64
					S131.348,168,96,168z"/>
				<linearGradient id="SVGID_10_" gradientUnits="userSpaceOnUse" x1="95.9995" y1="16.001" x2="95.9995" y2="176.0005">
					<stop  offset="0" style="stop-color:#00D5FF"/>
					<stop  offset="1" style="stop-color:#0055FF"/>
				</linearGradient>
				<path fill="url(#SVGID_10_)" d="M98,32.051v-4.398c2.329-0.825,4-3.04,4-5.651c0-3.313-2.688-6-6-6c-3.313,0-6,2.687-6,6
					c0,2.611,1.671,4.826,4,5.651v4.398C55.163,33.114,24,64.906,24,104c0,39.764,32.235,72,72,72c39.764,0,72-32.236,72-72
					C168,64.906,136.836,33.113,98,32.051z M96,168c-35.346,0-64-28.654-64-64s28.653-64,64-64c35.348,0,64,28.654,64,64
					S131.348,168,96,168z"/>
			</g>
			<g>
				<linearGradient id="SVGID_11_" gradientUnits="userSpaceOnUse" x1="95.9995" y1="16.001" x2="95.9995" y2="176.0005">
					<stop  offset="0" style="stop-color:#00D5FF"/>
					<stop  offset="1" style="stop-color:#0055FF"/>
				</linearGradient>
				<path fill="url(#SVGID_11_)" d="M114.155,85.844c1.844-17.051,1.844-17.558,1.844-17.85c0-11.022-8.972-19.994-20-19.994
					c-11.028,0-20,8.972-20,20c0,0.29,0.001,0.795,1.844,17.844L54.987,62.988C44.491,73.484,37.999,87.984,37.999,104
					c0,32.032,25.968,58,58,58c32.033,0,58-25.968,58-58c0-16.016-6.492-30.516-16.987-41.012L114.155,85.844z M96,154
					c-6.627,0-12-5.373-12-12s5.373-12,12-12s12,5.373,12,12S102.627,154,96,154z M103.984,123.674
					C101.536,122.604,98.839,122,96,122s-5.537,0.604-7.985,1.674C86.887,113.413,81.999,68.898,81.999,68c0-7.732,6.268-14,14-14
					c7.733,0,14,6.268,14,14C110,68.901,105.112,113.412,103.984,123.674z"/>
				<linearGradient id="SVGID_12_" gradientUnits="userSpaceOnUse" x1="95.9995" y1="16.001" x2="95.9995" y2="176.0005">
					<stop  offset="0" style="stop-color:#00D5FF"/>
					<stop  offset="1" style="stop-color:#0055FF"/>
				</linearGradient>
				<path fill="url(#SVGID_12_)" d="M114.155,85.844c1.844-17.051,1.844-17.558,1.844-17.85c0-11.022-8.972-19.994-20-19.994
					c-11.028,0-20,8.972-20,20c0,0.29,0.001,0.795,1.844,17.844L54.987,62.988C44.491,73.484,37.999,87.984,37.999,104
					c0,32.032,25.968,58,58,58c32.033,0,58-25.968,58-58c0-16.016-6.492-30.516-16.987-41.012L114.155,85.844z M96,154
					c-6.627,0-12-5.373-12-12s5.373-12,12-12s12,5.373,12,12S102.627,154,96,154z M103.984,123.674
					C101.536,122.604,98.839,122,96,122s-5.537,0.604-7.985,1.674C86.887,113.413,81.999,68.898,81.999,68c0-7.732,6.268-14,14-14
					c7.733,0,14,6.268,14,14C110,68.901,105.112,113.412,103.984,123.674z"/>
			</g>
		</g>
	</g>
</g>
</svg>
