<?xml version="1.0" encoding="utf-8"?>
<!-- Generator: Adobe Illustrator 16.0.0, SVG Export Plug-In . SVG Version: 6.00 Build 0)  -->
<!DOCTYPE svg PUBLIC "-//W3C//DTD SVG 1.1//EN" "http://www.w3.org/Graphics/SVG/1.1/DTD/svg11.dtd">
<svg version="1.1" xmlns="http://www.w3.org/2000/svg" xmlns:xlink="http://www.w3.org/1999/xlink" x="0px" y="0px" width="192px"
	 height="192px" viewBox="0 0 192 192" enable-background="new 0 0 192 192" xml:space="preserve">
<g id="Background">
	<g id="iOS" display="none">
		<rect x="0.0004883" display="inline" fill="#FFFFFF" width="191.9995117" height="192"/>
	</g>
	<g id="Android">
		<g>
			<path fill="#FFFFFF" d="M192,160c0,17.5996094-14.4003906,32-32,32H32.0004883c-17.6000977,0-32-14.4003906-32-32V32
				c0-17.6000977,14.3999023-32,32-32H160c17.5996094,0,32,14.3999023,32,32V160z"/>
		</g>
	</g>
</g>
<g id="Blue">
	<path fill="#0080FF" d="M96,36c-18.777832,0-35.777832,7.6113281-48.0834961,19.9174805L96,104l48.0830078-48.0830078
		C131.7773438,43.6113281,114.7773438,36,96,36z M66.2685547,56.5029297l-2-3.4643555l3.4638672-2l2,3.4643555
		L66.2685547,56.5029297z M98,48h-4v-4h4V48z M122.2675781,54.5039063l2-3.4648438l3.4648438,2l-2,3.4648438L122.2675781,54.5039063
		z"/>
</g>
<g id="Black">
	<g>
		<path d="M160.2197266,25.8154297c0.8085938-1.1123047,0.3779297-2.815918-0.9570313-3.7856445l-0.0488281-0.0356445
			c0.1269531-0.1074219,0.2421875-0.2304688,0.3427734-0.3691406c0.8115234-1.1162109,0.3828125-2.8125-0.9570313-3.7851563
			c-1.3408203-0.9746094-3.0859375-0.8574219-3.8964844,0.2587891c-0.1005859,0.1386719-0.1826172,0.2866211-0.2451172,0.4404297
			l-0.0498047-0.0356445c-1.3349609-0.9697266-3.0878906-0.8530273-3.8964844,0.2592773
			c-0.2441406,0.3369141-0.3623047,0.7299805-0.3896484,1.1386719c3.1689453,2.043457,6.2138672,4.262207,9.1230469,6.640625
			C159.6308594,26.3911133,159.9726563,26.1557617,160.2197266,25.8154297z"/>
		<path d="M31.7802734,25.8154297c0.2470703,0.340332,0.5888672,0.5756836,0.9736328,0.7270508
			c2.9101563-2.3789063,5.9550781-4.5981445,9.1245117-6.6420898c-0.0268555-0.4082031-0.1450195-0.8007813-0.3896484-1.1376953
			c-0.8081055-1.112793-2.5620117-1.2294922-3.8969727-0.2597656l-0.0488281,0.0356445
			c-0.0629883-0.1538086-0.144043-0.3012695-0.2446289-0.4399414c-0.8115234-1.1166992-2.5566406-1.2324219-3.8964844-0.2592773
			c-1.3408203,0.9741211-1.7695313,2.6694336-0.9570313,3.7861328c0.1005859,0.1386719,0.2158203,0.2612305,0.3422852,0.3686523
			l-0.0488281,0.0356445C31.4033203,22.9995117,30.972168,24.703125,31.7802734,25.8154297z"/>
		<path d="M162.7294922,67.6054688c5.9042969-7.2241211,15.7050781-24.8476563-9.1269531-42.8896484
			c-24.8486328-18.0532227-38.5830078-3.253418-43.6210938,4.590332
			C132.7617188,33.5449219,151.9726563,47.9257813,162.7294922,67.6054688z"/>
		<path d="M82.0185547,29.3061523c-5.0375977-7.8442383-18.7714844-22.644043-43.6206055-4.5898438
			c-24.8310547,18.0405273-15.0327148,35.6635742-9.1279297,42.8886719
			C40.0263672,47.925293,59.2387695,33.5444336,82.0185547,29.3061523z"/>
		<path d="M98,32.0507813v-4.3994141c2.3291016-0.824707,4-3.0400391,4-5.6513672c0-3.3134766-2.6865234-6-6-6s-6,2.6865234-6,6
			c0,2.6113281,1.6713867,4.8266602,4,5.6513672v4.3994141C55.1630859,33.1132813,24.0004883,64.90625,24.0004883,104
			c0,39.7636719,32.2353516,72,72,72C135.7636719,176,168,143.7636719,168,104C168,64.90625,136.8359375,33.112793,98,32.0507813z
			 M96.0004883,168c-35.3461914,0-63.9995117-28.6542969-63.9995117-64s28.6533203-63.9995117,63.9995117-63.9995117
			S160,68.6542969,160,104S131.3466797,168,96.0004883,168z"/>
		<rect x="152" y="102" width="4" height="4"/>
		<rect x="94" y="160" width="4" height="4"/>
		<rect x="36" y="102" width="4" height="4"/>
		
			<rect x="144.2303619" y="72.9999237" transform="matrix(0.4999725 0.8660412 -0.8660412 0.4999725 138.0725708 -89.1394348)" width="4.0002198" height="4.0006428"/>
		
			<rect x="123.0005875" y="152.2300873" transform="matrix(-0.5000255 -0.8660107 0.8660107 -0.5000255 53.9390945 339.600647)" width="3.9997969" height="3.9997969"/>
		
			<rect x="43.7711639" y="130.9996796" transform="matrix(-0.4999197 -0.8660718 0.8660718 -0.4999197 -46.5339966 239.130722)" width="4.0006428" height="4.0006428"/>
		
			<rect x="144.2300873" y="131.0005951" transform="matrix(0.8660108 0.5000253 -0.5000253 0.8660108 86.0968552 -55.2980652)" width="3.9997969" height="3.9997969"/>
		
			<rect x="65.0001373" y="152.2301483" transform="matrix(-0.8660412 -0.4999726 0.4999726 -0.8660412 47.9142113 321.2987061)" width="4.0002198" height="4.0006428"/>
		
			<rect x="43.7706413" y="73.0005875" transform="matrix(0.8660413 0.4999725 -0.4999725 0.8660413 43.62957 -12.8371506)" width="4.0002198" height="3.9997969"/>
		<path d="M96,54c-7.7324219,0-14.0004883,6.2680664-14.0004883,14c0,1.0161133,0.1142578,2.0048828,0.3198242,2.9599609
			l5.9262695,54.8154297C90.5966797,124.6494141,93.2192383,124,96,124c2.7802734,0,5.4023438,0.6494141,7.7529297,1.7753906
			l5.9257813-54.8085938C109.8847656,70.0097656,110,69.0185547,110,68C110,60.2680664,103.7333984,54,96,54z"/>
		<circle cx="96" cy="142" r="12"/>
	</g>
</g>
</svg>
