<?xml version="1.0" encoding="utf-8"?>
<!-- Generator: Adobe Illustrator 16.0.0, SVG Export Plug-In . SVG Version: 6.00 Build 0)  -->
<!DOCTYPE svg PUBLIC "-//W3C//DTD SVG 1.1//EN" "http://www.w3.org/Graphics/SVG/1.1/DTD/svg11.dtd">
<svg version="1.1" id="Foreground_1_" xmlns="http://www.w3.org/2000/svg" xmlns:xlink="http://www.w3.org/1999/xlink" x="0px"
	 y="0px" width="192px" height="192px" viewBox="0 0 192 192" enable-background="new 0 0 192 192" xml:space="preserve">
<path d="M96,32c-39.765,0-72,32.235-72,72s32.236,72,72,72c39.764,0,72-32.235,72-72S135.765,32,96,32z M96,160
	c-30.879,0-56-25.121-56-56c0-15.439,6.28-29.439,16.42-39.579l19.167,19.167C74,68.856,73.999,68.366,73.999,68
	c0-12.131,9.869-22,22-22s22,9.869,22,21.992c0.001,0.368,0,0.861-1.588,15.596l19.168-19.168C145.72,74.561,152,88.561,152,104
	C152,134.879,126.879,160,96,160z"/>
<path d="M79.403,25.743C72.946,17.984,59.8,9.167,38.398,24.717c-21.43,15.569-17.067,30.818-11.674,39.351
	C37.905,44.747,56.917,30.506,79.403,25.743z"/>
<path d="M165.275,64.066c5.393-8.532,9.756-23.781-11.674-39.351c-21.4-15.549-34.548-6.73-41.005,1.028
	C135.082,30.506,154.095,44.745,165.275,64.066z"/>
<path d="M96,122c2.839,0,5.536,0.604,7.984,1.674C105.112,113.412,110,68.901,109.999,68c0-7.732-6.267-14-14-14
	c-7.732,0-14,6.268-14,14c0,0.898,4.888,45.413,6.016,55.674C90.463,122.604,93.161,122,96,122z"/>
<circle cx="96" cy="142" r="12"/>
</svg>
