<?xml version="1.0" encoding="utf-8"?>
<!-- Generator: Adobe Illustrator 16.0.0, SVG Export Plug-In . SVG Version: 6.00 Build 0)  -->
<!DOCTYPE svg PUBLIC "-//W3C//DTD SVG 1.1//EN" "http://www.w3.org/Graphics/SVG/1.1/DTD/svg11.dtd">
<svg version="1.1" id="Layer_1" xmlns="http://www.w3.org/2000/svg" xmlns:xlink="http://www.w3.org/1999/xlink" x="0px" y="0px"
	 width="192px" height="192px" viewBox="0 0 192 192" enable-background="new 0 0 192 192" xml:space="preserve">
<g>
	<path fill="#FFFFFF" d="M165.2783203,64.0708008c5.3916016-8.5327148,9.7509766-23.7875977-11.6757813-39.3549805
		c-21.3964844-15.5454102-34.5507813-6.7314453-41.0097656,1.0258789
		C135.0810547,30.5048828,154.0966797,44.746582,165.2783203,64.0708008z"/>
	<path fill="#FFFFFF" d="M79.4082031,25.7412109c-6.4589844-7.7568359-19.6132813-16.5708008-41.0102539-1.0249023
		C16.9711914,40.2832031,21.3300781,55.5375977,26.7216797,64.0712891
		C37.9033203,44.746582,56.9189453,30.5043945,79.4082031,25.7412109z"/>
	<path fill="#FFFFFF" d="M96.0004883,32c-39.7646484,0-72,32.2353516-72,72c0,39.7636719,32.2353516,72,72,72
		C135.7636719,176,168,143.7636719,168,104C168,64.2353516,135.7636719,32,96.0004883,32z M96.0004883,168
		c-35.2895508,0-64-28.7099609-64-64c0-17.6445313,7.1772461-33.644043,18.765625-45.2324219l24.8232422,24.8222656
		C74,68.8222656,73.9995117,68.4262695,73.9995117,68c0-12.1308594,9.8696289-22,22.0004883-22s22,9.8691406,22,22
		c0,0.4228516-0.0009766,0.8154297-1.5898438,15.5898438l24.8232422-24.8237305C152.8222656,70.3549805,160,86.3549805,160,104
		C160,139.2900391,131.2900391,168,96.0004883,168z"/>
	<path fill="#FFFFFF" d="M96,54c-7.7324219,0-14.0004883,6.2680664-14.0004883,14
		c0,0.6845703,3.6264648,33.9921875,5.9960938,55.6835938C90.4492188,122.6074219,93.1533203,122,96,122
		c2.8457031,0,5.5498047,0.6074219,8.0039063,1.6835938C106.3730469,101.9931641,110,68.6860352,110,68
		C110,60.2680664,103.7333984,54,96,54z"/>
	<circle fill="#FFFFFF" cx="96" cy="142" r="12"/>
</g>
</svg>
